<svg width="370" height="173" viewBox="0 0 370 173" fill="none" xmlns="http://www.w3.org/2000/svg">
<mask id="mask0_0_50" style="mask-type:alpha" maskUnits="userSpaceOnUse" x="0" y="0" width="370" height="173">
<rect width="370" height="173" fill="#1C1C1C"/>
</mask>
<g mask="url(#mask0_0_50)">
<mask id="path-2-inside-1_0_50" fill="white">
<path d="M334.929 207.601C326.103 245.342 303.459 278.407 271.459 300.277C239.46 322.147 200.428 331.234 162.059 325.748C123.69 320.261 88.7696 300.599 64.1817 270.637C39.5938 240.676 27.1233 202.59 29.229 163.888C31.3346 125.186 47.8636 88.6778 75.5569 61.5608C103.25 34.4437 140.098 18.6861 178.836 17.3947C217.573 16.1033 255.389 29.3718 284.827 54.5843C314.264 79.7967 333.188 115.123 337.867 153.599L184 172.309L334.929 207.601Z"/>
</mask>
<path d="M334.929 207.601C326.103 245.342 303.459 278.407 271.459 300.277C239.46 322.147 200.428 331.234 162.059 325.748C123.69 320.261 88.7696 300.599 64.1817 270.637C39.5938 240.676 27.1233 202.59 29.229 163.888C31.3346 125.186 47.8636 88.6778 75.5569 61.5608C103.25 34.4437 140.098 18.6861 178.836 17.3947C217.573 16.1033 255.389 29.3718 284.827 54.5843C314.264 79.7967 333.188 115.123 337.867 153.599L184 172.309L334.929 207.601Z" stroke="#B8FF01" stroke-width="6" stroke-dasharray="40 4" mask="url(#path-2-inside-1_0_50)"/>
<rect x="175" y="142" width="156" height="75" fill="#0F0F0F"/>
<rect x="231.874" y="28" width="16" height="18" transform="rotate(22.4509 231.874 28)" fill="#101010"/>
<path opacity="0.2" d="M323 171.309C323 166.539 322.76 161.772 322.28 157.027L272.028 162.107C272.337 165.164 272.492 168.235 272.492 171.309H323Z" fill="url(#paint0_radial_0_50)"/>
<path opacity="0.75" d="M322.197 156.23C318.353 120.23 300.902 87.0575 273.414 63.4953C245.925 39.933 210.474 27.7605 174.31 29.4663C138.145 31.1721 103.997 46.6274 78.8486 72.6724C53.6998 98.7175 39.4493 133.385 39.0104 169.587L89.5149 170.2C89.7977 146.874 98.9794 124.538 115.183 107.756C131.387 90.9754 153.388 81.0175 176.689 79.9184C199.991 78.8193 222.832 86.6622 240.543 101.844C258.254 117.025 269.498 138.398 271.975 161.593L322.197 156.23Z" fill="url(#paint1_radial_0_50)"/>
<path d="M338.645 154.134C338.46 152.86 338.257 151.589 338.037 150.321L274.69 161.308C274.811 162.002 274.922 162.697 275.023 163.394L338.645 154.134Z" fill="url(#paint2_radial_0_50)"/>
<circle cx="181" cy="173.309" r="93" stroke="#B8FF01" stroke-width="2" stroke-dasharray="1 8"/>
<circle cx="181" cy="171.309" r="101.5" stroke="#B8FF01" stroke-width="3" stroke-dasharray="1 8"/>
<circle opacity="0.2" cx="184.709" cy="172.709" r="153.5" transform="rotate(-5.7335 184.709 172.709)" stroke="#B8FF01" stroke-width="3" stroke-dasharray="40 4"/>
<path d="M260.56 161.009C260.834 163.636 260.982 166.301 260.998 168.997L259.998 169.003C259.999 169.169 260 169.334 260 169.5C260 169.666 259.999 169.831 259.998 169.997L260.998 170.003C260.982 172.699 260.834 175.364 260.56 177.991L259.566 177.887C259.531 178.216 259.495 178.545 259.457 178.872L260.45 178.988C260.138 181.661 259.696 184.293 259.131 186.879L258.154 186.666C258.083 186.988 258.011 187.309 257.937 187.63L258.911 187.856C258.305 190.472 257.571 193.039 256.718 195.55L255.772 195.229C255.666 195.54 255.558 195.851 255.448 196.161L256.391 196.495C255.497 199.022 254.481 201.491 253.351 203.895L252.446 203.47C252.306 203.768 252.164 204.065 252.02 204.361L252.919 204.798C251.75 207.206 250.464 209.547 249.07 211.813L248.219 211.289C248.046 211.569 247.872 211.849 247.695 212.127L248.541 212.662C247.112 214.922 245.574 217.105 243.934 219.204L243.146 218.588C242.943 218.848 242.739 219.106 242.533 219.363L243.313 219.988C241.643 222.072 239.872 224.071 238.007 225.977L237.293 225.278C237.062 225.513 236.831 225.747 236.597 225.98L237.303 226.688C235.414 228.571 233.432 230.361 231.364 232.049L230.732 231.274C230.476 231.482 230.22 231.689 229.962 231.894L230.585 232.677C228.5 234.336 226.33 235.893 224.084 237.341L223.542 236.5C223.266 236.678 222.988 236.855 222.708 237.03L223.239 237.877C220.984 239.291 218.654 240.595 216.255 241.782L215.812 240.885C215.517 241.031 215.221 241.176 214.924 241.318L215.356 242.22C212.959 243.368 210.496 244.4 207.975 245.309L207.636 244.368C207.327 244.48 207.017 244.589 206.706 244.697L207.033 245.642C204.526 246.509 201.963 247.255 199.35 247.872L199.12 246.899C198.8 246.975 198.479 247.048 198.157 247.12L198.374 248.096C195.79 248.672 193.159 249.122 190.488 249.44L190.37 248.447C190.042 248.486 189.714 248.523 189.385 248.558L189.491 249.552C186.864 249.831 184.199 249.982 181.503 249.998L181.497 248.998C181.434 248.999 181.371 248.999 181.308 248.999C181.205 249 181.103 249 181 249C180.834 249 180.669 248.999 180.503 248.998L180.497 249.998C177.801 249.982 175.136 249.831 172.509 249.552L172.615 248.558C172.286 248.523 171.958 248.486 171.63 248.447L171.512 249.44C168.841 249.122 166.21 248.672 163.626 248.096L163.843 247.12C163.521 247.048 163.2 246.975 162.88 246.899L162.65 247.872C160.037 247.255 157.474 246.509 154.967 245.642L155.294 244.697C154.983 244.589 154.673 244.48 154.364 244.368L154.025 245.309C151.504 244.4 149.041 243.368 146.644 242.22L147.076 241.318C146.779 241.176 146.483 241.031 146.188 240.885L145.745 241.782C143.346 240.595 141.016 239.291 138.761 237.877L139.292 237.03C139.012 236.855 138.734 236.678 138.458 236.5L137.916 237.341C135.67 235.893 133.5 234.336 131.415 232.677L132.038 231.894C131.78 231.689 131.524 231.482 131.268 231.274L130.636 232.049C128.568 230.361 126.586 228.571 124.697 226.688L125.403 225.98C125.169 225.747 124.938 225.513 124.707 225.278L123.992 225.977C122.128 224.071 120.357 222.072 118.687 219.988L119.467 219.363C119.261 219.106 119.057 218.848 118.854 218.588L118.066 219.204C116.426 217.105 114.888 214.922 113.459 212.662L114.305 212.127C114.128 211.849 113.954 211.569 113.781 211.289L112.93 211.813C111.536 209.547 110.25 207.206 109.081 204.798L109.98 204.361C109.836 204.065 109.694 203.768 109.554 203.47L108.649 203.895C107.519 201.491 106.503 199.022 105.609 196.495L106.552 196.161C106.442 195.851 106.334 195.54 106.228 195.229L105.282 195.55C104.429 193.039 103.695 190.472 103.089 187.856L104.063 187.63C103.989 187.309 103.917 186.988 103.846 186.666L102.869 186.879C102.304 184.293 101.862 181.661 101.55 178.988L102.543 178.872C102.505 178.545 102.469 178.216 102.434 177.887L101.44 177.991C101.166 175.364 101.018 172.699 101.002 170.003L102.002 169.997C102.001 169.831 102 169.666 102 169.5C102 169.334 102.001 169.169 102.002 169.003L101.002 168.997C101.018 166.301 101.166 163.636 101.44 161.009L102.434 161.113C102.469 160.784 102.505 160.455 102.543 160.128L101.55 160.012C101.862 157.339 102.304 154.707 102.869 152.121L103.846 152.334C103.917 152.012 103.989 151.691 104.063 151.37L103.089 151.144C103.695 148.528 104.429 145.961 105.282 143.45L106.228 143.771C106.334 143.46 106.442 143.149 106.552 142.839L105.609 142.505C106.503 139.978 107.519 137.509 108.649 135.105L109.554 135.53C109.694 135.232 109.836 134.935 109.98 134.639L109.081 134.202C110.25 131.794 111.536 129.453 112.93 127.187L113.781 127.711C113.954 127.431 114.128 127.151 114.305 126.873L113.459 126.338C114.888 124.078 116.427 121.895 118.066 119.796L118.854 120.412C119.057 120.152 119.261 119.894 119.467 119.637L118.687 119.012C120.357 116.928 122.128 114.929 123.993 113.023L124.707 113.722C124.938 113.487 125.169 113.253 125.403 113.02L124.697 112.312C126.586 110.429 128.568 108.639 130.636 106.951L131.268 107.726C131.524 107.518 131.78 107.311 132.038 107.106L131.415 106.323C133.5 104.664 135.67 103.107 137.916 101.659L138.458 102.5C138.734 102.322 139.012 102.145 139.292 101.97L138.761 101.123C141.016 99.7089 143.346 98.405 145.745 97.2184L146.188 98.1147C146.483 97.9687 146.779 97.8244 147.076 97.682L146.644 96.7802C149.041 95.6317 151.504 94.5995 154.025 93.6911L154.364 94.6319C154.673 94.5205 154.983 94.4109 155.294 94.3033L154.967 93.3583C157.474 92.4905 160.037 91.7446 162.65 91.1276L162.88 92.1009C163.2 92.0252 163.521 91.9515 163.843 91.8798L163.626 90.9038C166.21 90.3279 168.841 89.8778 171.512 89.5602L171.63 90.5532C171.958 90.5143 172.286 90.4773 172.615 90.4424L172.509 89.448C175.136 89.1692 177.801 89.0183 180.497 89.0016L180.503 90.0015C180.669 90.0005 180.834 90 181 90C181.166 90 181.331 90.0005 181.497 90.0015L181.503 89.0016C184.199 89.0183 186.864 89.1692 189.491 89.448L189.385 90.4424C189.714 90.4773 190.042 90.5143 190.37 90.5532L190.488 89.5602C193.159 89.8778 195.79 90.3279 198.374 90.9038L198.157 91.8798C198.479 91.9515 198.8 92.0252 199.12 92.1009L199.35 91.1276C201.963 91.7446 204.526 92.4905 207.033 93.3583L206.706 94.3033C207.017 94.4109 207.327 94.5205 207.636 94.6319L207.975 93.6911C210.496 94.5995 212.959 95.6317 215.356 96.7802L214.924 97.682C215.221 97.8244 215.517 97.9687 215.812 98.1147L216.255 97.2184C218.654 98.405 220.984 99.7089 223.239 101.123L222.708 101.97C222.988 102.145 223.266 102.322 223.542 102.5L224.084 101.659C226.33 103.107 228.5 104.664 230.585 106.323L229.962 107.106C230.22 107.311 230.476 107.518 230.732 107.726L231.364 106.951C233.432 108.639 235.414 110.429 237.303 112.312L236.597 113.02C236.831 113.253 237.062 113.487 237.293 113.722L238.008 113.023C239.872 114.929 241.643 116.928 243.313 119.012L242.533 119.637C242.739 119.894 242.943 120.152 243.146 120.412L243.934 119.796C245.574 121.895 247.112 124.078 248.541 126.338L247.695 126.873C247.872 127.151 248.046 127.431 248.219 127.711L249.07 127.187C250.464 129.453 251.75 131.794 252.919 134.202L252.02 134.639C252.164 134.935 252.306 135.232 252.446 135.53L253.351 135.105C254.481 137.509 255.497 139.978 256.391 142.505L255.448 142.839C255.558 143.149 255.666 143.46 255.772 143.771L256.718 143.45C257.571 145.961 258.305 148.528 258.911 151.144L257.937 151.37C258.011 151.691 258.083 152.012 258.154 152.334L259.131 152.121C259.696 154.707 260.138 157.339 260.45 160.012L259.457 160.128C259.495 160.455 259.531 160.784 259.566 161.113L260.56 161.009Z" stroke="#B8FF01" stroke-opacity="0.7" stroke-width="2" stroke-dasharray="1 8"/>
<circle cx="181" cy="169" r="69" stroke="#B8FF01" stroke-opacity="0.6" stroke-width="2" stroke-dasharray="1 8"/>
<path d="M240.466 159.393C240.798 161.89 240.978 164.436 240.998 167.02L239.998 167.027C239.999 167.185 240 167.342 240 167.5C240 167.658 239.999 167.815 239.998 167.973L240.998 167.98C240.978 170.564 240.798 173.11 240.466 175.607L239.475 175.475C239.434 175.785 239.39 176.095 239.344 176.404L240.333 176.551C239.954 179.098 239.418 181.594 238.734 184.027L237.771 183.757C237.686 184.058 237.599 184.359 237.51 184.659L238.468 184.945C237.735 187.405 236.85 189.799 235.825 192.117L234.91 191.712C234.784 191.999 234.655 192.285 234.523 192.569L235.431 192.988C234.359 195.313 233.144 197.559 231.798 199.712L230.95 199.182C230.783 199.448 230.615 199.713 230.445 199.976L231.285 200.519C229.896 202.665 228.376 204.716 226.736 206.661L225.971 206.017C225.769 206.257 225.565 206.495 225.36 206.731L226.114 207.388C224.439 209.312 222.645 211.129 220.743 212.825L220.077 212.079C219.843 212.288 219.608 212.495 219.371 212.7L220.025 213.456C218.097 215.122 216.064 216.666 213.937 218.078L213.384 217.244C213.123 217.418 212.86 217.589 212.596 217.758L213.136 218.6C210.995 219.971 208.763 221.21 206.45 222.304L206.022 221.4C205.739 221.534 205.455 221.665 205.17 221.795L205.583 222.705C203.273 223.753 200.886 224.657 198.432 225.407L198.14 224.451C197.841 224.542 197.541 224.631 197.24 224.718L197.517 225.679C195.087 226.379 192.594 226.928 190.049 227.316L189.898 226.328C189.59 226.375 189.28 226.42 188.97 226.462L189.105 227.453C186.609 227.793 184.064 227.978 181.48 227.998L181.472 226.998C181.315 226.999 181.158 227 181 227C180.842 227 180.685 226.999 180.528 226.998L180.52 227.998C177.936 227.978 175.391 227.793 172.895 227.453L173.03 226.462C172.72 226.42 172.41 226.375 172.102 226.328L171.951 227.316C169.406 226.928 166.913 226.379 164.483 225.679L164.76 224.718C164.459 224.631 164.159 224.542 163.86 224.451L163.568 225.407C161.114 224.657 158.727 223.753 156.417 222.705L156.83 221.795C156.545 221.665 156.261 221.534 155.978 221.4L155.55 222.304C153.237 221.21 151.005 219.971 148.864 218.6L149.404 217.758C149.14 217.589 148.877 217.418 148.616 217.244L148.063 218.078C145.936 216.666 143.903 215.122 141.975 213.456L142.629 212.7C142.392 212.495 142.157 212.288 141.923 212.079L141.257 212.825C139.355 211.129 137.561 209.312 135.886 207.387L136.64 206.731C136.435 206.495 136.231 206.257 136.029 206.017L135.264 206.661C133.624 204.716 132.104 202.665 130.715 200.519L131.555 199.976C131.385 199.713 131.217 199.448 131.05 199.182L130.202 199.712C128.856 197.559 127.641 195.313 126.569 192.988L127.477 192.569C127.345 192.285 127.216 191.999 127.09 191.712L126.175 192.117C125.15 189.799 124.265 187.405 123.532 184.945L124.49 184.659C124.401 184.359 124.314 184.058 124.229 183.757L123.266 184.027C122.582 181.594 122.046 179.098 121.667 176.551L122.656 176.404C122.61 176.095 122.566 175.785 122.525 175.475L121.534 175.607C121.202 173.11 121.022 170.564 121.002 167.98L122.002 167.973C122.001 167.815 122 167.658 122 167.5C122 167.342 122.001 167.185 122.002 167.027L121.002 167.02C121.022 164.436 121.202 161.89 121.534 159.393L122.525 159.525C122.566 159.215 122.61 158.905 122.656 158.596L121.667 158.449C122.046 155.902 122.582 153.406 123.266 150.973L124.229 151.243C124.314 150.942 124.401 150.641 124.49 150.341L123.532 150.055C124.265 147.595 125.15 145.201 126.175 142.883L127.09 143.288C127.216 143.001 127.345 142.715 127.477 142.431L126.569 142.012C127.641 139.687 128.856 137.441 130.202 135.288L131.05 135.818C131.217 135.552 131.385 135.287 131.555 135.024L130.715 134.481C132.104 132.335 133.624 130.284 135.264 128.339L136.029 128.983C136.231 128.743 136.435 128.505 136.64 128.269L135.886 127.613C137.561 125.688 139.355 123.871 141.257 122.175L141.923 122.921C142.157 122.712 142.392 122.505 142.629 122.3L141.975 121.544C143.903 119.878 145.936 118.334 148.063 116.922L148.616 117.756C148.877 117.582 149.14 117.411 149.404 117.242L148.864 116.4C151.005 115.029 153.237 113.79 155.55 112.696L155.978 113.6C156.261 113.466 156.545 113.335 156.83 113.205L156.417 112.295C158.727 111.247 161.114 110.343 163.568 109.593L163.86 110.549C164.159 110.458 164.459 110.369 164.76 110.282L164.483 109.321C166.913 108.621 169.406 108.072 171.951 107.684L172.102 108.672C172.41 108.625 172.72 108.58 173.03 108.538L172.895 107.547C175.391 107.207 177.936 107.022 180.52 107.002L180.528 108.002C180.685 108.001 180.842 108 181 108C181.158 108 181.315 108.001 181.472 108.002L181.48 107.002C184.064 107.022 186.609 107.207 189.105 107.547L188.97 108.538C189.28 108.58 189.59 108.625 189.898 108.672L190.049 107.684C192.594 108.072 195.087 108.621 197.517 109.321L197.24 110.282C197.541 110.369 197.841 110.458 198.14 110.549L198.432 109.593C200.886 110.343 203.273 111.247 205.583 112.295L205.17 113.205C205.455 113.335 205.739 113.466 206.022 113.6L206.45 112.696C208.763 113.79 210.995 115.029 213.136 116.4L212.596 117.242C212.86 117.411 213.123 117.582 213.384 117.756L213.937 116.922C216.064 118.334 218.097 119.878 220.025 121.544L219.371 122.3C219.608 122.505 219.843 122.712 220.077 122.921L220.743 122.175C222.645 123.871 224.439 125.688 226.114 127.613L225.36 128.269C225.565 128.505 225.769 128.743 225.971 128.983L226.736 128.339C228.376 130.284 229.896 132.335 231.285 134.481L230.445 135.024C230.615 135.287 230.783 135.552 230.95 135.818L231.798 135.288C233.144 137.441 234.359 139.687 235.431 142.012L234.523 142.431C234.655 142.715 234.784 143.001 234.91 143.288L235.825 142.883C236.85 145.201 237.735 147.595 238.468 150.055L237.51 150.341C237.599 150.641 237.686 150.942 237.771 151.243L238.734 150.973C239.418 153.406 239.954 155.902 240.333 158.449L239.344 158.596C239.39 158.905 239.434 159.215 239.475 159.525L240.466 159.393Z" stroke="#B8FF01" stroke-opacity="0.5" stroke-width="2" stroke-dasharray="1 8"/>
<circle cx="181" cy="164" r="49" stroke="#B8FF01" stroke-opacity="0.4" stroke-width="2" stroke-dasharray="1 8"/>
<circle cx="182" cy="162" r="41" stroke="#B8FF01" stroke-opacity="0.3" stroke-width="2" stroke-dasharray="1 8"/>
<circle cx="181" cy="163.309" r="35.5" stroke="#B8FF01" stroke-opacity="0.2" stroke-dasharray="1 8"/>
<circle cx="182" cy="163.309" r="30.5" stroke="#B8FF01" stroke-opacity="0.1" stroke-dasharray="1 8"/>
<path d="M47.697 160.761C45.079 160.761 43.594 162.29 43.594 164.853V169H49.468C52.086 169 53.56 167.471 53.56 164.908V160.761H47.697ZM52.273 164.853C52.273 166.954 51.525 167.691 49.424 167.691H44.892V164.908C44.892 162.818 45.651 162.059 47.741 162.059H52.273V164.853Z" fill="white"/>
<path d="M58.516 137.691H49.925C50.211 136.129 50.849 135.535 52.697 135.535H58.516V130.761H48.671V132.059H57.218V134.226H53.258C49.65 134.248 48.715 135.304 48.506 139H58.516V137.691ZM63.8796 130.761C61.2616 130.761 59.7766 132.29 59.7766 134.853V139H65.6506C68.2686 139 69.7426 137.471 69.7426 134.908V130.761H63.8796ZM68.4556 134.853C68.4556 136.954 67.7076 137.691 65.6066 137.691H61.0746V134.908C61.0746 132.818 61.8336 132.059 63.9236 132.059H68.4556V134.853Z" fill="white"/>
<path d="M160 167.444L165.82 165.116L165.292 163.796L156.136 167.456V164.012H154.72V173H156.136V168.992L158.464 168.044L165.004 173.276L165.904 172.184L160 167.444ZM181.371 164.012H177.771C176.835 164.012 175.515 164.24 174.735 164.936V164.012H171.171C168.447 164.012 166.695 165.656 166.695 168.068V173H168.123V168.536C168.123 166.244 168.939 165.428 171.207 165.428H173.307V172.988H174.735V168.536C174.735 166.256 175.563 165.428 177.843 165.428H179.943V173H181.371V164.012ZM190.406 163.724L182.09 172.184L183.014 173.132L191.33 164.66L190.406 163.724ZM202.916 164.012H201.512V167.792H193.46V164.012H192.044V173H193.46V169.22H201.512V173H202.916V164.012ZM211.74 169.22H215.172V164.012H208.776C205.908 164.012 204.3 165.692 204.3 168.476V173H205.716V169.22H209.496L214.596 173.276L215.484 172.184L211.74 169.22ZM205.8 167.792C206.172 165.776 207.588 165.428 208.596 165.428H213.768V167.792H205.8Z" fill="white"/>
<path d="M73.141 94.761V98.226H65.848C66.167 96.356 66.838 96.18 69.269 96.015L69.192 94.728C67.377 94.827 66.178 95.201 65.54 95.839C64.913 96.455 64.517 97.687 64.418 99.535H73.097C72.91 101.086 72.294 101.57 69.621 101.735L69.698 103.033L70.358 103C73.086 102.868 74.439 101.449 74.439 98.908V94.761H73.141ZM79.74 94.761C77.122 94.761 75.637 96.29 75.637 98.853V103H81.511C84.129 103 85.603 101.471 85.603 98.908V94.761H79.74ZM84.316 98.853C84.316 100.954 83.568 101.691 81.467 101.691H76.935V98.908C76.935 96.818 77.694 96.059 79.784 96.059H84.316V98.853Z" fill="white"/>
<path d="M92.947 67.226C93.101 65.565 93.871 65.059 95.741 65.059H101.56V63.761H95.697C93.079 63.761 91.594 65.279 91.594 67.853V72H97.457C100.24 72 101.384 70.823 101.593 67.226H92.947ZM100.185 68.535C99.866 70.185 99.294 70.691 97.424 70.691H92.892V68.535H100.185ZM106.804 63.761C104.186 63.761 102.701 65.29 102.701 67.853V72H108.575C111.193 72 112.667 70.471 112.667 67.908V63.761H106.804ZM111.38 67.853C111.38 69.954 110.632 70.691 108.531 70.691H103.999V67.908C103.999 65.818 104.758 65.059 106.848 65.059H111.38V67.853Z" fill="white"/>
<path d="M131.697 42.761C129.079 42.761 127.594 44.29 127.594 46.853V51H133.468C136.086 51 137.56 49.471 137.56 46.908V42.761H131.697ZM136.273 46.226H128.925C129.123 44.664 129.86 44.059 131.741 44.059H136.273V46.226ZM136.24 47.535C136.064 49.086 135.272 49.691 133.424 49.691H128.892V47.535H136.24ZM142.858 42.761C140.24 42.761 138.755 44.29 138.755 46.853V51H144.629C147.247 51 148.721 49.471 148.721 46.908V42.761H142.858ZM147.434 46.853C147.434 48.954 146.686 49.691 144.585 49.691H140.053V46.908C140.053 44.818 140.812 44.059 142.902 44.059H147.434V46.853Z" fill="white"/>
<path d="M166.958 34.761H165.66V43H166.958V34.761ZM172.329 34.761C169.711 34.761 168.226 36.29 168.226 38.853V43H174.1C176.718 43 178.192 41.471 178.192 38.908V34.761H172.329ZM176.905 38.853C176.905 40.954 176.157 41.691 174.056 41.691H169.524V38.908C169.524 36.818 170.283 36.059 172.373 36.059H176.905V38.853ZM183.49 34.761C180.872 34.761 179.387 36.29 179.387 38.853V43H185.261C187.879 43 189.353 41.471 189.353 38.908V34.761H183.49ZM188.066 38.853C188.066 40.954 187.318 41.691 185.217 41.691H180.685V38.908C180.685 36.818 181.444 36.059 183.534 36.059H188.066V38.853Z" fill="white"/>
<path d="M207.958 39.761H206.66V48H207.958V39.761ZM219.148 46.691H210.557C210.843 45.129 211.481 44.535 213.329 44.535H219.148V39.761H209.303V41.059H217.85V43.226H213.89C210.282 43.248 209.347 44.304 209.138 48H219.148V46.691ZM224.511 39.761C221.893 39.761 220.408 41.29 220.408 43.853V48H226.282C228.9 48 230.374 46.471 230.374 43.908V39.761H224.511ZM229.087 43.853C229.087 45.954 228.339 46.691 226.238 46.691H221.706V43.908C221.706 41.818 222.465 41.059 224.555 41.059H229.087V43.853Z" fill="white"/>
<path d="M237.958 55.761H236.66V64H237.958V55.761ZM247.773 55.761V59.226H240.48C240.799 57.356 241.47 57.18 243.901 57.015L243.824 55.728C242.009 55.827 240.81 56.201 240.172 56.839C239.545 57.455 239.149 58.687 239.05 60.535H247.729C247.542 62.086 246.926 62.57 244.253 62.735L244.33 64.033L244.99 64C247.718 63.868 249.071 62.449 249.071 59.908V55.761H247.773ZM254.372 55.761C251.754 55.761 250.269 57.29 250.269 59.853V64H256.143C258.761 64 260.235 62.471 260.235 59.908V55.761H254.372ZM258.948 59.853C258.948 61.954 258.2 62.691 256.099 62.691H251.567V59.908C251.567 57.818 252.326 57.059 254.416 57.059H258.948V59.853Z" fill="white"/>
<path d="M260.958 76.761H259.66V85H260.958V76.761ZM263.579 80.226C263.733 78.565 264.503 78.059 266.373 78.059H272.192V76.761H266.329C263.711 76.761 262.226 78.279 262.226 80.853V85H268.089C270.872 85 272.016 83.823 272.225 80.226H263.579ZM270.817 81.535C270.498 83.185 269.926 83.691 268.056 83.691H263.524V81.535H270.817ZM277.436 76.761C274.818 76.761 273.333 78.29 273.333 80.853V85H279.207C281.825 85 283.299 83.471 283.299 80.908V76.761H277.436ZM282.012 80.853C282.012 82.954 281.264 83.691 279.163 83.691H274.631V80.908C274.631 78.818 275.39 78.059 277.48 78.059H282.012V80.853Z" fill="white"/>
<path d="M280.958 105.761H279.66V114H280.958V105.761ZM286.329 105.761C283.711 105.761 282.226 107.29 282.226 109.853V114H288.1C290.718 114 292.192 112.471 292.192 109.908V105.761H286.329ZM290.905 109.226H283.557C283.755 107.664 284.492 107.059 286.373 107.059H290.905V109.226ZM290.872 110.535C290.696 112.086 289.904 112.691 288.056 112.691H283.524V110.535H290.872ZM297.49 105.761C294.872 105.761 293.387 107.29 293.387 109.853V114H299.261C301.879 114 303.353 112.471 303.353 109.908V105.761H297.49ZM302.066 109.853C302.066 111.954 301.318 112.691 299.217 112.691H294.685V109.908C294.685 107.818 295.444 107.059 297.534 107.059H302.066V109.853Z" fill="white"/>
<path d="M294.516 144.691H285.925C286.211 143.129 286.849 142.535 288.697 142.535H294.516V137.761H284.671V139.059H293.218V141.226H289.258C285.65 141.248 284.715 142.304 284.506 146H294.516V144.691ZM299.88 137.761C297.262 137.761 295.777 139.29 295.777 141.853V146H301.651C304.269 146 305.743 144.471 305.743 141.908V137.761H299.88ZM304.456 141.853C304.456 143.954 303.708 144.691 301.607 144.691H297.075V141.908C297.075 139.818 297.834 139.059 299.924 139.059H304.456V141.853ZM311.041 137.761C308.423 137.761 306.938 139.29 306.938 141.853V146H312.812C315.43 146 316.904 144.471 316.904 141.908V137.761H311.041ZM315.617 141.853C315.617 143.954 314.869 144.691 312.768 144.691H308.236V141.908C308.236 139.818 308.995 139.059 311.085 139.059H315.617V141.853Z" fill="white"/>
<g filter="url(#filter0_f_0_50)">
<path d="M33.5 180.5C-16 68.5 250 -105.5 338 152" stroke="#B8FF01" stroke-width="4"/>
</g>
</g>
<defs>
<filter id="filter0_f_0_50" x="5.40973" y="-3.70554" width="354.482" height="205.014" filterUnits="userSpaceOnUse" color-interpolation-filters="sRGB">
<feFlood flood-opacity="0" result="BackgroundImageFix"/>
<feBlend mode="normal" in="SourceGraphic" in2="BackgroundImageFix" result="shape"/>
<feGaussianBlur stdDeviation="10" result="effect1_foregroundBlur_0_50"/>
</filter>
<radialGradient id="paint0_radial_0_50" cx="0" cy="0" r="1" gradientUnits="userSpaceOnUse" gradientTransform="translate(181 174.809) rotate(-90) scale(154.5 138.147)">
<stop offset="0.698873" stop-color="#111111"/>
<stop offset="1" stop-color="#B8FF01" stop-opacity="0.8"/>
</radialGradient>
<radialGradient id="paint1_radial_0_50" cx="0" cy="0" r="1" gradientUnits="userSpaceOnUse" gradientTransform="translate(181 174.809) rotate(-90) scale(154.5 138.147)">
<stop offset="0.698873" stop-color="#111111"/>
<stop offset="1" stop-color="#B8FF01" stop-opacity="0.8"/>
</radialGradient>
<radialGradient id="paint2_radial_0_50" cx="0" cy="0" r="1" gradientUnits="userSpaceOnUse" gradientTransform="translate(201.272 179.695) rotate(-15.1986) scale(153.781 137.503)">
<stop offset="0.442287" stop-color="#B8FF01"/>
<stop offset="0.778527" stop-color="#29BEB6"/>
</radialGradient>
</defs>
</svg>
